<svg width="81" height="118" viewBox="0 0 81 118" fill="none" xmlns="http://www.w3.org/2000/svg">
<path fill-rule="evenodd" clip-rule="evenodd" d="M41.024 20.8423C42.6861 21.9235 44.3192 22.4459 45.0858 22.2327C47.0081 21.6979 47.1848 14.1088 45.6975 11.117C44.2101 8.12511 36.564 6.82106 36.1786 12.7489C36.0448 14.8062 36.8452 16.6422 38.0279 18.1404L35.9072 28.8076H42.0672L41.024 20.8423Z" fill="#B28B67"/>
<path fill-rule="evenodd" clip-rule="evenodd" d="M43.264 7.8584C42.4223 7.58141 41.2004 7.48747 40.6864 7.55102C40.9788 6.79498 41.0948 5.95266 41.0002 5.13252C40.9083 4.3356 40.5783 3.65704 40.2732 2.946C40.1325 2.61826 39.9731 2.2923 39.7354 2.04161C39.4933 1.78621 39.1868 1.61763 38.8654 1.5372C38.5366 1.45487 38.1927 1.46173 37.8633 1.53644C37.7176 1.56949 37.5868 1.64139 37.4439 1.68136C37.2976 1.72231 37.2266 1.62346 37.1204 1.52411C36.8644 1.28475 36.4891 1.16658 36.1653 1.12429C35.8019 1.07687 35.4249 1.13601 35.0784 1.26492C34.7411 1.39041 34.417 1.59418 34.1732 1.89105C34.0646 2.02319 33.966 2.1736 33.902 2.33966C33.8757 2.40781 33.8714 2.44818 33.8084 2.47314C33.7501 2.49625 33.6819 2.49692 33.6218 2.51891C33.0402 2.73149 32.543 3.21643 32.2722 3.83907C32.1143 4.20232 32.0395 4.84187 32.06 5.5587C32.0805 6.27553 32.6802 8.14595 33.2412 8.82819C33.7419 9.43714 34.4779 9.839 35.1881 10.0149C34.7167 10.5965 34.4029 11.3232 34.1708 12.0623C33.9187 12.8651 33.7627 13.6993 33.7051 14.5493C33.6504 15.3568 33.6453 16.2108 33.8207 17.0011C33.9848 17.7402 34.3358 18.3465 34.9216 18.7311C35.19 18.9073 35.4787 19.0397 35.7692 19.1607C36.0554 19.2799 36.3424 19.3958 36.6422 19.4627C37.2096 19.5892 37.8634 19.5675 38.3005 19.0801C38.458 18.9044 38.6312 18.6836 38.7462 18.469C38.7875 18.3918 38.8124 18.3413 38.7622 18.2658C38.702 18.1755 38.6048 18.1062 38.5275 18.0355C38.0869 17.6325 37.8142 17.0944 37.7454 16.4549C37.6757 15.8061 37.8372 14.9687 38.4217 14.6855C39.1432 14.336 39.9378 14.7372 40.5791 15.1112C40.8517 14.0731 41.4113 13.1383 42.2887 12.6622C43.2593 12.1354 44.3731 12.0737 45.3707 11.6217C45.6306 11.5039 45.8953 11.3702 46.0867 11.1302C46.1667 11.0299 46.2605 10.8998 46.2924 10.7671C46.3344 10.5929 46.2303 10.4468 46.1498 10.3109C45.7233 9.59063 44.1057 8.1354 43.264 7.8584Z" fill="#191847"/>
<path fill-rule="evenodd" clip-rule="evenodd" d="M34.3662 51.7981L53.4382 86.2084L67.7367 115.299H70.8165L46.8591 51.7981L34.3662 51.7981Z" fill="#997659"/>
<path fill-rule="evenodd" clip-rule="evenodd" d="M68.1282 114.146C66.9582 114.146 65.6114 114.359 65.4478 115.518C65.4325 115.626 65.4238 115.726 65.4238 115.813C65.4238 116.563 65.6551 118 65.6551 118C66.4605 118 80.1316 118 80.1316 118C80.1316 118 80.6959 115.987 79.4801 115.826C78.2644 115.666 77.4602 115.536 77.4602 115.536L71.4703 112.654C70.9429 112.401 70.3114 112.652 70.1026 113.199L69.9574 113.579C69.9574 113.579 68.8319 114.146 68.1282 114.146Z" fill="#E4E4E4"/>
<path fill-rule="evenodd" clip-rule="evenodd" d="M63.766 110.641L69.7053 108.702C69.7053 108.702 65.8021 96.1093 60.1374 80.9863C54.4727 65.8633 47.97 51.7981 47.97 51.7981H31.1953C31.1953 51.7981 38.4249 69.5899 46.5239 84.1304C54.623 98.6709 63.766 110.641 63.766 110.641Z" fill="#228BD6"/>
<path fill-rule="evenodd" clip-rule="evenodd" d="M33.1137 51.7981C31.3137 63.8901 27.8419 79.339 27.5142 79.8158C27.2958 80.1336 19.4323 82.9773 3.92383 88.3468L4.5891 91.2777C23.083 88.398 32.8277 86.1638 33.8232 84.5751C35.3164 82.1921 42.7725 63.3663 45.6604 51.7981H33.1137Z" fill="#B28B67"/>
<path fill-rule="evenodd" clip-rule="evenodd" d="M9.375 85.8133L10.5468 90.5337C24.3791 91.8429 32.8545 90.8969 35.9729 87.6956C39.0913 84.4942 42.6454 72.5284 46.6352 51.7981H30.6395C28.1117 68.7734 26.6985 77.6174 26.3999 78.33C26.1013 79.0426 20.4263 81.537 9.375 85.8133Z" fill="#64B9F7"/>
<path fill-rule="evenodd" clip-rule="evenodd" d="M4.88449 89.2891C4.87932 88.1565 4.3373 86.9466 3.21442 86.964C3.10244 86.9657 3.0005 86.9739 2.91388 86.9904C2.23016 87.1205 0.958614 87.6159 0.958614 87.6159C1.09847 88.4719 3.47243 103.002 3.47243 103.002C3.47243 103.002 5.40759 103.252 5.34296 101.932C5.27833 100.612 5.25674 99.7346 5.25674 99.7346L6.88407 92.7052C7.00769 92.1712 6.68857 91.6457 6.16526 91.5215L5.74019 91.4206C5.74019 91.4206 5.0276 90.3229 4.90542 89.575C4.89143 89.4894 4.88497 89.3929 4.88449 89.2891Z" fill="#E4E4E4"/>
<path fill-rule="evenodd" clip-rule="evenodd" d="M56.2731 29.2756L47.3643 34.5414L50.6541 38.3521L57.1275 31.9556C60.5376 30.9414 62.0971 30.1994 61.806 29.7298C61.5605 29.3337 61.1646 29.3475 60.7999 29.3602C60.5158 29.37 60.2507 29.3792 60.0904 29.1936C59.7243 28.7695 60.4227 27.2869 61.1413 25.9106C61.8598 24.5342 61.0915 24.654 60.6521 24.852C59.2143 25.9025 57.7546 27.377 56.2731 29.2756ZM65.23 36.6643L61.3168 38.9843L61.5396 43.2224C61.5396 43.2224 64.0741 41.2483 66.2546 40.5921C69.0349 39.7555 70.1597 39.1167 71.5183 37.2485C72.2452 36.2489 72.8622 34.2395 72.1703 33.5851C71.9049 33.334 70.9159 33.9271 69.9069 34.5322C69.1379 34.9934 68.3572 35.4615 67.8762 35.5684C67.2288 35.7122 67.3046 34.8065 67.3651 34.0828C67.4086 33.5635 67.4442 33.1378 67.1991 33.2609C66.0537 33.2821 65.23 36.6643 65.23 36.6643Z" fill="#997659"/>
<path fill-rule="evenodd" clip-rule="evenodd" d="M43.0251 33.3683C46.1455 33.3327 50.3067 32.6215 54.7466 29.58L56.4903 33.7764C53.4277 37.0565 49.1214 39.7515 45.3561 39.6374C42.3888 39.5474 40.8723 35.674 43.0251 33.3683Z" fill="#2026A2"/>
<path fill-rule="evenodd" clip-rule="evenodd" d="M34.6094 62.1186C31.6429 61.7012 28.917 61.3176 27.3017 61.6608C25.4892 55.3085 26.9942 51.3089 28.3835 47.6168C29.2209 45.3915 30.0162 43.2779 30.0179 40.8282C30.0228 33.6943 35.3306 22.7136 36.1115 22.7136H36.336H42.5249H43.2332C43.5516 27.1282 44.9105 31.9079 46.2782 36.7184C46.5976 37.8418 46.9174 38.9668 47.2246 40.0893C52.4002 41.3574 63.8931 36.9438 63.8931 36.9438C63.8931 36.9438 66.7944 43.4214 66.5755 46.1799C59.886 49.9509 54.1526 51.6322 49.429 51.7432C49.5791 54.7679 49.238 57.646 48.092 60.2758C46.5564 63.7995 40.1614 62.8998 34.6094 62.1186Z" fill="#1F28CF"/>
</svg>
