<svg width="29" height="27" viewBox="0 0 29 27" fill="none" xmlns="http://www.w3.org/2000/svg">
<path d="M27.5 22.5V24C27.4976 24.7949 27.1808 25.5566 26.6187 26.1187C26.0566 26.6808 25.2949 26.9976 24.5 27H3.5C2.70435 27 1.94129 26.6839 1.37868 26.1213C0.816071 25.5587 0.5 24.7956 0.5 24V3C0.5 2.20435 0.816071 1.44129 1.37868 0.87868C1.94129 0.316071 2.70435 0 3.5 0H24.5C25.2949 0.00237409 26.0566 0.319207 26.6187 0.881302C27.1808 1.4434 27.4976 2.20508 27.5 3V4.5H14C13.2044 4.5 12.4413 4.81607 11.8787 5.37868C11.3161 5.94129 11 6.70435 11 7.5V19.5C11 20.2956 11.3161 21.0587 11.8787 21.6213C12.4413 22.1839 13.2044 22.5 14 22.5H27.5ZM14 19.5H29V7.5H14V19.5ZM20 15.75C19.555 15.75 19.12 15.618 18.75 15.3708C18.38 15.1236 18.0916 14.7722 17.9213 14.361C17.751 13.9499 17.7064 13.4975 17.7932 13.061C17.8801 12.6246 18.0943 12.2237 18.409 11.909C18.7237 11.5943 19.1246 11.38 19.561 11.2932C19.9975 11.2064 20.4499 11.251 20.861 11.4213C21.2722 11.5916 21.6236 11.88 21.8708 12.25C22.118 12.62 22.25 13.055 22.25 13.5C22.2504 13.7956 22.1925 14.0883 22.0795 14.3615C21.9666 14.6347 21.8009 14.8829 21.5919 15.0919C21.3829 15.3009 21.1347 15.4666 20.8615 15.5795C20.5883 15.6925 20.2956 15.7504 20 15.75Z" fill="#ACAFB8"/>
</svg>
