<svg width="46" height="27" viewBox="0 0 46 27" fill="none" xmlns="http://www.w3.org/2000/svg">
<path d="M24.9502 15.75H23.8252V9.563C23.8252 9.41395 23.766 9.271 23.6606 9.16561C23.5552 9.06021 23.4122 9.001 23.2632 9.001H22.3082C21.9751 9.00074 21.6494 9.09922 21.3722 9.284L20.2942 10.003C20.2327 10.0439 20.1799 10.0966 20.1387 10.158C20.0976 10.2193 20.069 10.2882 20.0545 10.3607C20.04 10.4331 20.0399 10.5077 20.0543 10.5802C20.0686 10.6526 20.0972 10.7216 20.1382 10.783L20.7622 11.719C20.8031 11.7805 20.8558 11.8333 20.9172 11.8745C20.9785 11.9156 21.0474 11.9442 21.1198 11.9587C21.1923 11.9732 21.2669 11.9733 21.3394 11.9589C21.4118 11.9445 21.4808 11.916 21.5422 11.875L21.5752 11.853V15.753H20.4502C20.3763 15.753 20.3031 15.7676 20.2349 15.7959C20.1666 15.8242 20.1046 15.8657 20.0524 15.918C20.0002 15.9703 19.9589 16.0323 19.9307 16.1006C19.9025 16.1689 19.8881 16.2421 19.8882 16.316V17.441C19.8881 17.515 19.9025 17.5882 19.9308 17.6566C19.959 17.725 20.0005 17.7871 20.0528 17.8394C20.1051 17.8917 20.1672 17.9332 20.2356 17.9614C20.304 17.9897 20.3772 18.0041 20.4512 18.004H24.9512C25.0251 18.0041 25.0983 17.9897 25.1666 17.9615C25.2349 17.9333 25.2969 17.8919 25.3492 17.8397C25.4015 17.7875 25.443 17.7255 25.4713 17.6573C25.4996 17.589 25.5142 17.5159 25.5142 17.442V16.313C25.5143 16.2389 25.4998 16.1656 25.4715 16.0972C25.4432 16.0287 25.4016 15.9666 25.3492 15.9142C25.2968 15.8619 25.2346 15.8205 25.1661 15.7923C25.0976 15.7641 25.0243 15.7497 24.9502 15.75ZM42.9502 0H2.4502C1.85346 0 1.28116 0.237053 0.859205 0.65901C0.437248 1.08097 0.200195 1.65326 0.200195 2.25L0.200195 24.75C0.200195 25.3467 0.437248 25.919 0.859205 26.341C1.28116 26.7629 1.85346 27 2.4502 27H42.9502C43.5469 27 44.1192 26.7629 44.5412 26.341C44.9631 25.919 45.2002 25.3467 45.2002 24.75V2.25C45.2002 1.65326 44.9631 1.08097 44.5412 0.65901C44.1192 0.237053 43.5469 0 42.9502 0ZM3.5752 23.625V19.125C4.76867 19.125 5.91326 19.5991 6.75718 20.443C7.60109 21.2869 8.0752 22.4315 8.0752 23.625H3.5752ZM3.5752 7.875V3.375H8.0752C8.0752 4.56847 7.60109 5.71307 6.75718 6.55698C5.91326 7.40089 4.76867 7.875 3.5752 7.875ZM22.7002 21.375C18.9722 21.375 15.9502 17.849 15.9502 13.5C15.9502 9.151 18.9722 5.625 22.7002 5.625C26.4282 5.625 29.4502 9.15 29.4502 13.5C29.4502 17.85 26.4272 21.375 22.7002 21.375ZM41.8252 23.625H37.3252C37.3252 22.4315 37.7993 21.2869 38.6432 20.443C39.4871 19.5991 40.6317 19.125 41.8252 19.125V23.625ZM41.8252 7.875C40.6317 7.875 39.4871 7.40089 38.6432 6.55698C37.7993 5.71307 37.3252 4.56847 37.3252 3.375H41.8252V7.875Z" fill="#ACAFB8"/>
</svg>
