<svg width="31" height="31" viewBox="0 0 31 31" fill="none" xmlns="http://www.w3.org/2000/svg">
<path d="M26 14C26 16.3734 25.2962 18.6935 23.9776 20.6668C22.6591 22.6402 20.7849 24.1783 18.5922 25.0866C16.3995 25.9948 13.9867 26.2324 11.6589 25.7694C9.33115 25.3064 7.19295 24.1635 5.51472 22.4853C3.83649 20.8071 2.6936 18.6689 2.23058 16.3411C1.76756 14.0133 2.0052 11.6005 2.91345 9.4078C3.8217 7.21509 5.35977 5.34094 7.33316 4.02236C9.30655 2.70379 11.6266 2 14 2C17.1826 2 20.2349 3.26428 22.4853 5.51472C24.7357 7.76516 26 10.8174 26 14Z" stroke="#76819B" stroke-width="3" stroke-linecap="round" stroke-linejoin="round"/>
<path d="M28.9996 29L22.4746 22.475" stroke="#76819B" stroke-width="3" stroke-linecap="round" stroke-linejoin="round"/>
</svg>
